<?xml version="1.0" encoding="UTF-8" standalone="no"?>
<!-- Created with Inkscape (http://www.inkscape.org/) -->

<svg
   width="1087.5pt"
   height="1347.1156pt"
   viewBox="0 0 383.64584 475.23245"
   version="1.1"
   id="svg1"
   inkscape:version="1.4.4 (dcaf3e7d, 2026-05-05)"
   sodipodi:docname="logo_openirn.svg"
   xml:space="preserve"
   inkscape:export-filename="logo_openirn.png"
   inkscape:export-xdpi="96"
   inkscape:export-ydpi="96"
   xmlns:inkscape="http://www.inkscape.org/namespaces/inkscape"
   xmlns:sodipodi="http://sodipodi.sourceforge.net/DTD/sodipodi-0.dtd"
   xmlns="http://www.w3.org/2000/svg"
   xmlns:svg="http://www.w3.org/2000/svg"><sodipodi:namedview
     id="namedview1"
     pagecolor="#ffffff"
     bordercolor="#000000"
     borderopacity="0.25"
     inkscape:showpageshadow="2"
     inkscape:pageopacity="0.0"
     inkscape:pagecheckerboard="0"
     inkscape:deskcolor="#d1d1d1"
     inkscape:document-units="px"
     inkscape:zoom="0.26284403"
     inkscape:cx="2081.0821"
     inkscape:cy="886.45728"
     inkscape:window-width="1739"
     inkscape:window-height="983"
     inkscape:window-x="28"
     inkscape:window-y="31"
     inkscape:window-maximized="0"
     inkscape:current-layer="layer1" /><defs
     id="defs1" /><g
     inkscape:label="Layer 1"
     inkscape:groupmode="layer"
     id="layer1"
     transform="translate(83.619683,32.064101)"><g
       id="g39"
       transform="matrix(0.99770646,0,0,0.99770646,-1.0853659,-0.07354032)"><g
         id="g2"
         transform="translate(0,-1.2167053e-5)"><path
           id="path7"
           style="fill:#111844;fill-opacity:1;stroke:none;stroke-width:1.09228;stroke-linecap:round;stroke-linejoin:round"
           d="M 200.25463,37.275297 132.31564,9.1345874 A 21.152058,21.152058 0 0 1 113.58718,20.455513 l 1e-5,19.078656 78.4142,32.480506 13.49101,-13.490952 a 21.152058,21.152058 0 0 1 -5.23777,-21.248426 z" /><path
           id="path19"
           style="fill:#4b5694;fill-opacity:1;stroke:none;stroke-width:1.09228;stroke-linecap:round;stroke-linejoin:round"
           d="m 232.4645,69.485184 28.14071,67.938986 a 21.152058,21.152058 0 0 0 -11.32091,18.72842 l -19.07862,2e-5 -32.48055,-78.414214 13.49099,-13.491008 a 21.152058,21.152058 0 0 0 21.24838,5.237796 z" /><path
           id="path20"
           style="fill:#7288ae;fill-opacity:1;stroke:none;stroke-width:1.09228;stroke-linecap:round;stroke-linejoin:round"
           d="m 18.825182,283.12451 67.938991,28.14068 a 21.152058,21.152058 0 0 1 18.728457,-11.3209 l 5e-5,-19.07869 -78.414217,-32.48048 -13.491055,13.49097 a 21.152058,21.152058 0 0 1 5.237774,21.24842 z" /><path
           id="path21"
           style="fill:#eae0cf;fill-opacity:1;stroke:none;stroke-width:1.09228;stroke-linecap:round;stroke-linejoin:round"
           d="m -13.384673,250.9146 -28.140705,-67.93902 a 21.152058,21.152058 0 0 0 11.320909,-18.72844 l 19.078642,1e-5 32.480589,78.41421 -13.4910573,13.49106 A 21.152058,21.152058 0 0 0 -13.384673,250.9146 Z" /><path
           id="path22"
           style="fill:#eae0cf;fill-opacity:1;stroke:none;stroke-width:1.09228;stroke-linecap:round;stroke-linejoin:round"
           d="m -13.384679,69.485203 -28.140678,67.938967 a 21.152058,21.152058 0 0 1 11.320875,18.72845 l 19.078669,2e-5 L 21.354735,77.73842 7.8637066,64.247395 a 21.152058,21.152058 0 0 1 -21.2483856,5.237808 z" /><path
           id="path23"
           style="fill:#111844;fill-opacity:1;stroke:none;stroke-width:1.09228;stroke-linecap:round;stroke-linejoin:round"
           d="M 18.825191,37.275292 86.764194,9.1346029 A 21.152058,21.152058 0 0 0 105.49262,20.455531 l 1e-5,19.078627 L 27.078464,72.014717 13.587422,58.523701 a 21.152058,21.152058 0 0 0 5.237769,-21.248409 z" /><path
           id="path24"
           style="fill:#4b5694;fill-opacity:1;stroke:none;stroke-width:1.09228;stroke-linecap:round;stroke-linejoin:round"
           d="m 232.46453,250.91463 28.14068,-67.93903 a 21.152058,21.152058 0 0 1 -11.3209,-18.72844 l -19.07865,2e-5 -32.48056,78.41416 13.49102,13.49105 a 21.152058,21.152058 0 0 1 21.24841,-5.23776 z" /><path
           id="path25"
           style="fill:#7288ae;fill-opacity:1;stroke:none;stroke-width:1.09228;stroke-linecap:round;stroke-linejoin:round"
           d="m 200.25467,283.12449 -67.93902,28.14071 a 21.152058,21.152058 0 0 0 -18.72847,-11.32093 l 2e-5,-19.07863 78.41418,-32.48057 13.49102,13.49105 a 21.152058,21.152058 0 0 0 -5.23773,21.24837 z" /><path
           id="path18"
           style="fill:#eae0cf;fill-opacity:1;stroke:none;stroke-width:0.685687;stroke-linecap:round;stroke-linejoin:round"
           d="m 245.49104,54.162237 a 21.152058,21.152058 0 0 1 -29.91352,1.5e-5 21.152058,21.152058 0 0 1 3e-5,-29.913571 21.152058,21.152058 0 0 1 29.91353,2.5e-5 21.152058,21.152058 0 0 1 -4e-5,29.913531 z" /><path
           id="path26"
           style="fill:#111844;fill-opacity:1;stroke:none;stroke-width:0.685687;stroke-linecap:round;stroke-linejoin:round"
           d="m 245.4909,296.15085 a 21.152058,21.152058 0 0 1 -29.91359,2e-5 21.152058,21.152058 0 0 1 4e-5,-29.9135 21.152058,21.152058 0 0 1 29.91354,10e-6 21.152058,21.152058 0 0 1 1e-5,29.91347 z" /><path
           id="path27"
           style="fill:#7288ae;fill-opacity:1;stroke:none;stroke-width:0.685684;stroke-linecap:round;stroke-linejoin:round"
           d="m 3.5023431,54.162081 a 21.152058,21.151877 45 0 1 -29.9134361,-1.12e-4 21.152058,21.151877 45 0 1 -9.8e-5,-29.913422 21.152058,21.151877 45 0 1 29.9134163,1.38e-4 21.152058,21.151877 45 0 1 1.178e-4,29.913396 z" /><path
           id="path28"
           style="fill:#4b5694;fill-opacity:1;stroke:none;stroke-width:0.685687;stroke-linecap:round;stroke-linejoin:round"
           d="m 3.5023611,296.15091 a 21.152058,21.152058 0 0 1 -29.9135091,-1e-5 21.152058,21.152058 0 0 1 -1.4e-5,-29.91353 21.152058,21.152058 0 0 1 29.9135522,0 21.152058,21.152058 0 0 1 -2.91e-5,29.91354 z" /><circle
           style="fill:#4b5694;fill-opacity:1;stroke:none;stroke-width:1.05041;stroke-linecap:round;stroke-linejoin:round;stroke-opacity:1"
           id="path30"
           cx="160.19991"
           cy="-280.65167"
           r="21.152058"
           transform="rotate(90)" /><circle
           style="fill:#111844;fill-opacity:1;stroke:none;stroke-width:1.05041;stroke-linecap:round;stroke-linejoin:round;stroke-opacity:1"
           id="circle30"
           cx="-10.912031"
           cy="-109.53986"
           r="21.152058"
           transform="rotate(90)" /><circle
           style="fill:#7288ae;fill-opacity:1;stroke:none;stroke-width:1.05041;stroke-linecap:round;stroke-linejoin:round;stroke-opacity:1"
           id="circle31"
           cx="331.31165"
           cy="-109.53986"
           r="21.152058"
           transform="rotate(90)" /><circle
           style="fill:#eae0cf;fill-opacity:1;stroke:none;stroke-width:1.05041;stroke-linecap:round;stroke-linejoin:round;stroke-opacity:1"
           id="circle32"
           cx="160.19991"
           cy="61.571976"
           r="21.152058"
           transform="rotate(90)" /></g><g
         id="g38"><circle
           style="fill:#eae0cf;fill-opacity:1;stroke:none;stroke-width:1.05041;stroke-linecap:round;stroke-linejoin:round;stroke-opacity:1"
           id="circle2"
           cx="160.1998"
           cy="-109.53985"
           r="21.152058"
           transform="rotate(90)" /><g
           id="g11"><path
             style="fill:#111844;fill-opacity:1;stroke:none;stroke-width:0.19535;stroke-dasharray:none;stroke-opacity:1"
             d="m 107.55547,66.287342 v 39.687498 h 3.96875 V 66.287342 Z"
             id="path3"
             sodipodi:nodetypes="ccccc" /><path
             style="fill:#111844;fill-opacity:1;stroke:none;stroke-width:0.112785;stroke-dasharray:none;stroke-opacity:1"
             d="m 107.55547,112.58942 v 13.22916 h 3.96875 v -13.22916 z"
             id="path5"
             sodipodi:nodetypes="ccccc" /><path
             style="fill:#111844;fill-opacity:1;stroke:none;stroke-width:0.19535;stroke-dasharray:none;stroke-opacity:1"
             d="m 107.55547,254.11226 v -39.6875 h 3.96875 v 39.6875 z"
             id="path8"
             sodipodi:nodetypes="ccccc" /><path
             style="fill:#111844;fill-opacity:1;stroke:none;stroke-width:0.112785;stroke-dasharray:none;stroke-opacity:1"
             d="m 107.55547,207.81018 v -13.22916 h 3.96875 v 13.22916 z"
             id="path10"
             sodipodi:nodetypes="ccccc" /></g><g
           id="g33"
           transform="rotate(60,109.53985,160.1998)"><path
             style="fill:#111844;fill-opacity:1;stroke:none;stroke-width:0.19535;stroke-dasharray:none;stroke-opacity:1"
             d="m 107.55547,66.287342 v 39.687498 h 3.96875 V 66.287342 Z"
             id="path29"
             sodipodi:nodetypes="ccccc" /><path
             style="fill:#111844;fill-opacity:1;stroke:none;stroke-width:0.112785;stroke-dasharray:none;stroke-opacity:1"
             d="m 107.55547,112.58942 v 13.22916 h 3.96875 v -13.22916 z"
             id="path31"
             sodipodi:nodetypes="ccccc" /><path
             style="fill:#111844;fill-opacity:1;stroke:none;stroke-width:0.19535;stroke-dasharray:none;stroke-opacity:1"
             d="m 107.55547,254.11226 v -39.6875 h 3.96875 v 39.6875 z"
             id="path32"
             sodipodi:nodetypes="ccccc" /><path
             style="fill:#111844;fill-opacity:1;stroke:none;stroke-width:0.112785;stroke-dasharray:none;stroke-opacity:1"
             d="m 107.55547,207.81018 v -13.22916 h 3.96875 v 13.22916 z"
             id="path33"
             sodipodi:nodetypes="ccccc" /></g><g
           id="g37"
           transform="rotate(120,109.53985,160.1998)"><path
             style="fill:#111844;fill-opacity:1;stroke:none;stroke-width:0.19535;stroke-dasharray:none;stroke-opacity:1"
             d="m 107.55547,66.287342 v 39.687498 h 3.96875 V 66.287342 Z"
             id="path34"
             sodipodi:nodetypes="ccccc" /><path
             style="fill:#111844;fill-opacity:1;stroke:none;stroke-width:0.112785;stroke-dasharray:none;stroke-opacity:1"
             d="m 107.55547,112.58942 v 13.22916 h 3.96875 v -13.22916 z"
             id="path35"
             sodipodi:nodetypes="ccccc" /><path
             style="fill:#111844;fill-opacity:1;stroke:none;stroke-width:0.19535;stroke-dasharray:none;stroke-opacity:1"
             d="m 107.55547,254.11226 v -39.6875 h 3.96875 v 39.6875 z"
             id="path36"
             sodipodi:nodetypes="ccccc" /><path
             style="fill:#111844;fill-opacity:1;stroke:none;stroke-width:0.112785;stroke-dasharray:none;stroke-opacity:1"
             d="m 107.55547,207.81018 v -13.22916 h 3.96875 v 13.22916 z"
             id="path37"
             sodipodi:nodetypes="ccccc" /></g></g></g><g
       id="g41"
       transform="matrix(1.6572482,0,0,1.6572482,-122.05582,-304.64313)"><path
         d="m 42.344346,441.88968 q -5.4356,0 -9.8044,-2.3368 -4.3688,-2.3876 -6.858,-6.5532 -2.4892,-4.2164 -2.4892,-9.398 0,-5.1816 2.4892,-9.3472 2.4892,-4.2164 6.858,-6.5532 4.3688,-2.3876 9.8044,-2.3876 5.4356,0 9.8044,2.3876 4.3688,2.3368 6.858,6.5024 2.4892,4.1656 2.4892,9.398 0,5.2324 -2.4892,9.398 -2.4892,4.1656 -6.858,6.5532 -4.3688,2.3368 -9.8044,2.3368 z m 0,-5.7912 q 3.556,0 6.4008,-1.5748 2.8448,-1.6256 4.4704,-4.4704 1.6256,-2.8956 1.6256,-6.4516 0,-3.556 -1.6256,-6.4008 -1.6256,-2.8956 -4.4704,-4.4704 -2.8448,-1.6256 -6.4008,-1.6256 -3.556,0 -6.4008,1.6256 -2.8448,1.5748 -4.4704,4.4704 -1.6256,2.8448 -1.6256,6.4008 0,3.556 1.6256,6.4516 1.6256,2.8448 4.4704,4.4704 2.8448,1.5748 6.4008,1.5748 z m 40.589247,-22.1488 q 3.9624,0 7.0612,1.7272 3.1496,1.7272 4.9276,4.8768 1.778,3.1496 1.778,7.2644 0,4.1148 -1.778,7.3152 -1.778,3.1496 -4.9276,4.8768 -3.0988,1.7272 -7.0612,1.7272 -5.4864,0 -8.6868,-3.6576 v 13.1572 h -6.35 v -36.9824 h 6.0452 v 3.556 q 1.5748,-1.9304 3.8608,-2.8956 2.3368,-0.9652 5.1308,-0.9652 z m -0.7112,22.352 q 3.5052,0 5.7404,-2.3368 2.286,-2.3368 2.286,-6.1468 0,-3.81 -2.286,-6.1468 -2.2352,-2.3368 -5.7404,-2.3368 -2.286,0 -4.1148,1.0668 -1.8288,1.016 -2.8956,2.9464 -1.0668,1.9304 -1.0668,4.4704 0,2.54 1.0668,4.4704 1.0668,1.9304 2.8956,2.9972 1.8288,1.016 4.1148,1.016 z m 46.024847,-8.3312 q 0,0.6604 -0.1016,1.8796 h -21.2852 q 0.5588,2.9972 2.8956,4.7752 2.3876,1.7272 5.8928,1.7272 4.4704,0 7.366,-2.9464 l 3.4036,3.9116 q -1.8288,2.1844 -4.6228,3.302 -2.794,1.1176 -6.2992,1.1176 -4.4704,0 -7.874,-1.778 -3.4036,-1.778 -5.2832,-4.9276 -1.8288,-3.2004 -1.8288,-7.2136 0,-3.9624 1.778,-7.112 1.8288,-3.2004 5.0292,-4.9784 3.2004,-1.778 7.2136,-1.778 3.9624,0 7.0612,1.778 3.1496,1.7272 4.8768,4.9276 1.778,3.1496 1.778,7.3152 z m -13.716,-8.9408 q -3.048,0 -5.1816,1.8288 -2.0828,1.778 -2.54,4.7752 h 15.3924 q -0.4064,-2.9464 -2.4892,-4.7752 -2.0828,-1.8288 -5.1816,-1.8288 z m 35.20438,-5.08 q 5.1308,0 8.2296,2.9972 3.0988,2.9972 3.0988,8.89 v 15.5448 h -6.35 v -14.732 q 0,-3.556 -1.6764,-5.334 -1.6764,-1.8288 -4.7752,-1.8288 -3.5052,0 -5.5372,2.1336 -2.032,2.0828 -2.032,6.0452 v 13.716 h -6.35 v -27.1272 h 6.0452 v 3.5052 q 1.5748,-1.8796 3.9624,-2.8448 2.3876,-0.9652 5.3848,-0.9652 z"
         id="text40"
         style="font-weight:600;font-size:50.8px;font-family:Montserrat;-inkscape-font-specification:'Montserrat, Semi-Bold';fill:#eae0cf;stroke-width:0.529167"
         aria-label="Open" /><path
         d="m 169.7508,405.31378 h 6.604 v 35.56 h -6.604 z m 39.47161,35.56 -7.2644,-10.414 q -0.4572,0.0508 -1.3716,0.0508 h -8.0264 v 10.3632 h -6.604 v -35.56 h 14.6304 q 4.6228,0 8.0264,1.524 3.4544,1.524 5.2832,4.3688 1.8288,2.8448 1.8288,6.7564 0,4.0132 -1.9812,6.9088 -1.9304,2.8956 -5.588,4.318 l 8.1788,11.684 z m -0.1524,-22.9108 q 0,-3.4036 -2.2352,-5.2324 -2.2352,-1.8288 -6.5532,-1.8288 h -7.7216 v 14.1732 h 7.7216 q 4.318,0 6.5532,-1.8288 2.2352,-1.8796 2.2352,-5.2832 z m 45.61845,-12.6492 v 35.56 h -5.4356 l -19.6088,-24.0792 v 24.0792 h -6.5532 v -35.56 h 5.4356 l 19.6088,24.0792 v -24.0792 z"
         id="text41"
         style="font-weight:600;font-size:50.8px;font-family:Montserrat;-inkscape-font-specification:'Montserrat, Semi-Bold';fill:#111844;stroke-width:0.529167"
         aria-label="IRN" /></g><g
       id="g1"
       transform="translate(80.529381,26.172049)"
       inkscape:export-filename="g1.png"
       inkscape:export-xdpi="96"
       inkscape:export-ydpi="96"><rect
         style="fill:#ffffff;fill-opacity:1;stroke-width:0.596472"
         id="rect1"
         width="423.33334"
         height="423.33334"
         x="311.98093"
         y="-44.143517" /><g
         id="g69"
         transform="matrix(0.99770646,0,0,0.99770646,414.35898,7.6907849)"><g
           id="g55"
           transform="translate(0,-1.2167053e-5)"><path
             id="path41"
             style="fill:#111844;fill-opacity:1;stroke:none;stroke-width:1.09228;stroke-linecap:round;stroke-linejoin:round"
             d="M 200.25463,37.275297 132.31564,9.1345874 A 21.152058,21.152058 0 0 1 113.58718,20.455513 l 1e-5,19.078656 78.4142,32.480506 13.49101,-13.490952 a 21.152058,21.152058 0 0 1 -5.23777,-21.248426 z" /><path
             id="path42"
             style="fill:#4b5694;fill-opacity:1;stroke:none;stroke-width:1.09228;stroke-linecap:round;stroke-linejoin:round"
             d="m 232.4645,69.485184 28.14071,67.938986 a 21.152058,21.152058 0 0 0 -11.32091,18.72842 l -19.07862,2e-5 -32.48055,-78.414214 13.49099,-13.491008 a 21.152058,21.152058 0 0 0 21.24838,5.237796 z" /><path
             id="path43"
             style="fill:#7288ae;fill-opacity:1;stroke:none;stroke-width:1.09228;stroke-linecap:round;stroke-linejoin:round"
             d="m 18.825182,283.12451 67.938991,28.14068 a 21.152058,21.152058 0 0 1 18.728457,-11.3209 l 5e-5,-19.07869 -78.414217,-32.48048 -13.491055,13.49097 a 21.152058,21.152058 0 0 1 5.237774,21.24842 z" /><path
             id="path44"
             style="fill:#eae0cf;fill-opacity:1;stroke:none;stroke-width:1.09228;stroke-linecap:round;stroke-linejoin:round"
             d="m -13.384673,250.9146 -28.140705,-67.93902 a 21.152058,21.152058 0 0 0 11.320909,-18.72844 l 19.078642,1e-5 32.480589,78.41421 -13.4910573,13.49106 A 21.152058,21.152058 0 0 0 -13.384673,250.9146 Z" /><path
             id="path45"
             style="fill:#eae0cf;fill-opacity:1;stroke:none;stroke-width:1.09228;stroke-linecap:round;stroke-linejoin:round"
             d="m -13.384679,69.485203 -28.140678,67.938967 a 21.152058,21.152058 0 0 1 11.320875,18.72845 l 19.078669,2e-5 L 21.354735,77.73842 7.8637066,64.247395 a 21.152058,21.152058 0 0 1 -21.2483856,5.237808 z" /><path
             id="path46"
             style="fill:#111844;fill-opacity:1;stroke:none;stroke-width:1.09228;stroke-linecap:round;stroke-linejoin:round"
             d="M 18.825191,37.275292 86.764194,9.1346029 A 21.152058,21.152058 0 0 0 105.49262,20.455531 l 1e-5,19.078627 L 27.078464,72.014717 13.587422,58.523701 a 21.152058,21.152058 0 0 0 5.237769,-21.248409 z" /><path
             id="path47"
             style="fill:#4b5694;fill-opacity:1;stroke:none;stroke-width:1.09228;stroke-linecap:round;stroke-linejoin:round"
             d="m 232.46453,250.91463 28.14068,-67.93903 a 21.152058,21.152058 0 0 1 -11.3209,-18.72844 l -19.07865,2e-5 -32.48056,78.41416 13.49102,13.49105 a 21.152058,21.152058 0 0 1 21.24841,-5.23776 z" /><path
             id="path48"
             style="fill:#7288ae;fill-opacity:1;stroke:none;stroke-width:1.09228;stroke-linecap:round;stroke-linejoin:round"
             d="m 200.25467,283.12449 -67.93902,28.14071 a 21.152058,21.152058 0 0 0 -18.72847,-11.32093 l 2e-5,-19.07863 78.41418,-32.48057 13.49102,13.49105 a 21.152058,21.152058 0 0 0 -5.23773,21.24837 z" /><path
             id="path49"
             style="fill:#eae0cf;fill-opacity:1;stroke:none;stroke-width:0.685687;stroke-linecap:round;stroke-linejoin:round"
             d="m 245.49104,54.162237 a 21.152058,21.152058 0 0 1 -29.91352,1.5e-5 21.152058,21.152058 0 0 1 3e-5,-29.913571 21.152058,21.152058 0 0 1 29.91353,2.5e-5 21.152058,21.152058 0 0 1 -4e-5,29.913531 z" /><path
             id="path50"
             style="fill:#111844;fill-opacity:1;stroke:none;stroke-width:0.685687;stroke-linecap:round;stroke-linejoin:round"
             d="m 245.4909,296.15085 a 21.152058,21.152058 0 0 1 -29.91359,2e-5 21.152058,21.152058 0 0 1 4e-5,-29.9135 21.152058,21.152058 0 0 1 29.91354,10e-6 21.152058,21.152058 0 0 1 1e-5,29.91347 z" /><path
             id="path51"
             style="fill:#7288ae;fill-opacity:1;stroke:none;stroke-width:0.685684;stroke-linecap:round;stroke-linejoin:round"
             d="m 3.5023431,54.162081 a 21.152058,21.151877 45 0 1 -29.9134361,-1.12e-4 21.152058,21.151877 45 0 1 -9.8e-5,-29.913422 21.152058,21.151877 45 0 1 29.9134163,1.38e-4 21.152058,21.151877 45 0 1 1.178e-4,29.913396 z" /><path
             id="path52"
             style="fill:#4b5694;fill-opacity:1;stroke:none;stroke-width:0.685687;stroke-linecap:round;stroke-linejoin:round"
             d="m 3.5023611,296.15091 a 21.152058,21.152058 0 0 1 -29.9135091,-1e-5 21.152058,21.152058 0 0 1 -1.4e-5,-29.91353 21.152058,21.152058 0 0 1 29.9135522,0 21.152058,21.152058 0 0 1 -2.91e-5,29.91354 z" /><circle
             style="fill:#4b5694;fill-opacity:1;stroke:none;stroke-width:1.05041;stroke-linecap:round;stroke-linejoin:round;stroke-opacity:1"
             id="circle52"
             cx="160.19991"
             cy="-280.65167"
             r="21.152058"
             transform="rotate(90)" /><circle
             style="fill:#111844;fill-opacity:1;stroke:none;stroke-width:1.05041;stroke-linecap:round;stroke-linejoin:round;stroke-opacity:1"
             id="circle53"
             cx="-10.912031"
             cy="-109.53986"
             r="21.152058"
             transform="rotate(90)" /><circle
             style="fill:#7288ae;fill-opacity:1;stroke:none;stroke-width:1.05041;stroke-linecap:round;stroke-linejoin:round;stroke-opacity:1"
             id="circle54"
             cx="331.31165"
             cy="-109.53986"
             r="21.152058"
             transform="rotate(90)" /><circle
             style="fill:#eae0cf;fill-opacity:1;stroke:none;stroke-width:1.05041;stroke-linecap:round;stroke-linejoin:round;stroke-opacity:1"
             id="circle55"
             cx="160.19991"
             cy="61.571976"
             r="21.152058"
             transform="rotate(90)" /></g><g
           id="g68"><circle
             style="fill:#eae0cf;fill-opacity:1;stroke:none;stroke-width:1.05041;stroke-linecap:round;stroke-linejoin:round;stroke-opacity:1"
             id="circle56"
             cx="160.1998"
             cy="-109.53985"
             r="21.152058"
             transform="rotate(90)" /><g
             id="g59"><path
               style="fill:#111844;fill-opacity:1;stroke:none;stroke-width:0.19535;stroke-dasharray:none;stroke-opacity:1"
               d="m 107.55547,66.287342 v 39.687498 h 3.96875 V 66.287342 Z"
               id="path56"
               sodipodi:nodetypes="ccccc" /><path
               style="fill:#111844;fill-opacity:1;stroke:none;stroke-width:0.112785;stroke-dasharray:none;stroke-opacity:1"
               d="m 107.55547,112.58942 v 13.22916 h 3.96875 v -13.22916 z"
               id="path57"
               sodipodi:nodetypes="ccccc" /><path
               style="fill:#111844;fill-opacity:1;stroke:none;stroke-width:0.19535;stroke-dasharray:none;stroke-opacity:1"
               d="m 107.55547,254.11226 v -39.6875 h 3.96875 v 39.6875 z"
               id="path58"
               sodipodi:nodetypes="ccccc" /><path
               style="fill:#111844;fill-opacity:1;stroke:none;stroke-width:0.112785;stroke-dasharray:none;stroke-opacity:1"
               d="m 107.55547,207.81018 v -13.22916 h 3.96875 v 13.22916 z"
               id="path59"
               sodipodi:nodetypes="ccccc" /></g><g
             id="g63"
             transform="rotate(60,109.53985,160.1998)"><path
               style="fill:#111844;fill-opacity:1;stroke:none;stroke-width:0.19535;stroke-dasharray:none;stroke-opacity:1"
               d="m 107.55547,66.287342 v 39.687498 h 3.96875 V 66.287342 Z"
               id="path60"
               sodipodi:nodetypes="ccccc" /><path
               style="fill:#111844;fill-opacity:1;stroke:none;stroke-width:0.112785;stroke-dasharray:none;stroke-opacity:1"
               d="m 107.55547,112.58942 v 13.22916 h 3.96875 v -13.22916 z"
               id="path61"
               sodipodi:nodetypes="ccccc" /><path
               style="fill:#111844;fill-opacity:1;stroke:none;stroke-width:0.19535;stroke-dasharray:none;stroke-opacity:1"
               d="m 107.55547,254.11226 v -39.6875 h 3.96875 v 39.6875 z"
               id="path62"
               sodipodi:nodetypes="ccccc" /><path
               style="fill:#111844;fill-opacity:1;stroke:none;stroke-width:0.112785;stroke-dasharray:none;stroke-opacity:1"
               d="m 107.55547,207.81018 v -13.22916 h 3.96875 v 13.22916 z"
               id="path63"
               sodipodi:nodetypes="ccccc" /></g><g
             id="g67"
             transform="rotate(120,109.53985,160.1998)"><path
               style="fill:#111844;fill-opacity:1;stroke:none;stroke-width:0.19535;stroke-dasharray:none;stroke-opacity:1"
               d="m 107.55547,66.287342 v 39.687498 h 3.96875 V 66.287342 Z"
               id="path64"
               sodipodi:nodetypes="ccccc" /><path
               style="fill:#111844;fill-opacity:1;stroke:none;stroke-width:0.112785;stroke-dasharray:none;stroke-opacity:1"
               d="m 107.55547,112.58942 v 13.22916 h 3.96875 v -13.22916 z"
               id="path65"
               sodipodi:nodetypes="ccccc" /><path
               style="fill:#111844;fill-opacity:1;stroke:none;stroke-width:0.19535;stroke-dasharray:none;stroke-opacity:1"
               d="m 107.55547,254.11226 v -39.6875 h 3.96875 v 39.6875 z"
               id="path66"
               sodipodi:nodetypes="ccccc" /><path
               style="fill:#111844;fill-opacity:1;stroke:none;stroke-width:0.112785;stroke-dasharray:none;stroke-opacity:1"
               d="m 107.55547,207.81018 v -13.22916 h 3.96875 v 13.22916 z"
               id="path67"
               sodipodi:nodetypes="ccccc" /></g></g></g></g></g></svg>
